<svg xmlns="http://www.w3.org/2000/svg" xmlns:xlink="http://www.w3.org/1999/xlink" viewBox="0 0 641.52 412.3"><defs><style>.cls-1{fill:none;}.cls-2{fill:#231f20;}.cls-3{fill:#1c3f47;}.cls-4{isolation:isolate;}.cls-5{fill:#dce8ef;}.cls-6{fill:url(#linear-gradient);}.cls-7{fill:url(#linear-gradient-2);}.cls-8{fill:url(#New_Gradient_Swatch_6);}.cls-9{fill:#fff;}.cls-10{clip-path:url(#clip-path);}.cls-11{fill:url(#New_Gradient_Swatch_4);}.cls-12{fill:#b3d3ff;}.cls-13{fill:url(#New_Gradient_Swatch_4-2);}.cls-14{clip-path:url(#clip-path-2);}.cls-15{fill:#f4b298;}.cls-16{fill:#ffc8af;}.cls-17{fill:url(#New_Gradient_Swatch_4-3);}.cls-18,.cls-37,.cls-38,.cls-39,.cls-40,.cls-41,.cls-42{mix-blend-mode:screen;}.cls-19{fill:#606bf1;}.cls-20{fill:#4b5ddd;}.cls-21{fill:url(#_10_dpi_20_);}.cls-22{fill:#46267d;}.cls-23{fill:#ec827d;}.cls-24{fill:#f9f8f7;}.cls-25{fill:url(#New_Gradient_Swatch_3);}.cls-26{fill:#fcdacd;}.cls-27{fill:#7352ba;}.cls-28{fill:url(#New_Gradient_Swatch_4-4);}.cls-29{fill:#0071fb;}.cls-30{fill:url(#New_Gradient_Swatch_4-5);}.cls-31{fill:url(#New_Gradient_Swatch_4-6);}.cls-32{fill:#c3d3dd;}.cls-33{fill:#a5b7c6;}.cls-34{fill:#2c005b;}.cls-35{fill:url(#New_Gradient_Swatch_3-2);}.cls-36{fill:url(#New_Gradient_Swatch_3-3);}.cls-37,.cls-64{fill:#56548c;}.cls-38{opacity:0.6;fill:url(#Diagonal_Lines_2);}.cls-39{fill:url(#New_Gradient_Swatch_8);}.cls-40{fill:url(#New_Gradient_Swatch_8-2);}.cls-41{fill:url(#New_Gradient_Swatch_8-3);}.cls-42{fill:url(#New_Gradient_Swatch_8-4);}.cls-43{fill:url(#New_Gradient_Swatch_8-5);}.cls-44{fill:url(#linear-gradient-3);}.cls-45{fill:url(#New_Gradient_Swatch_6-2);}.cls-46{fill:url(#linear-gradient-4);}.cls-47{fill:url(#linear-gradient-5);}.cls-48{fill:#5d9b98;}.cls-49{fill:#69a6a5;}.cls-50{fill:#74bab6;}.cls-51{fill:#e2e1e0;}.cls-52{fill:url(#New_Gradient_Swatch_6-3);}.cls-53{fill:#f9fbfc;}.cls-54{fill:url(#linear-gradient-6);}.cls-55{fill:url(#linear-gradient-7);}.cls-56{fill:url(#linear-gradient-8);}.cls-57{fill:url(#linear-gradient-9);}.cls-58{fill:url(#linear-gradient-10);}.cls-59{fill:url(#linear-gradient-11);}.cls-60{fill:url(#linear-gradient-12);}.cls-61{fill:url(#linear-gradient-13);}.cls-62{fill:url(#linear-gradient-14);}.cls-63{fill:#ccd9e2;}.cls-65{fill:#fbd15b;}.cls-66{fill:#e9e5d9;}.cls-67{fill:#878cf0;}</style><linearGradient id="linear-gradient" x1="320.88" y1="124.16" x2="320.88" y2="425.84" gradientUnits="userSpaceOnUse"><stop offset="0" stop-color="#c6dff2"/><stop offset="1" stop-color="#7a95fc"/></linearGradient><linearGradient id="linear-gradient-2" x1="61.21" y1="21.59" x2="248.21" y2="359.37" xlink:href="#linear-gradient"/><linearGradient id="New_Gradient_Swatch_6" x1="330.03" y1="60.06" x2="382.79" y2="151.46" gradientUnits="userSpaceOnUse"><stop offset="0" stop-color="#df697b"/><stop offset="1" stop-color="#be2773"/></linearGradient><clipPath id="clip-path" transform="translate(0 -2.18)"><path class="cls-1" d="M612.21,264.3a32.29,32.29,0,0,0,.88-7.47V202a32.31,32.31,0,0,0-32.31-32.31H569v-42.1a32.31,32.31,0,0,0-32.31-32.31H524V75.69a32.32,32.32,0,0,0-32.31-32.31H234.19a32.32,32.32,0,0,0-32.31,32.31V95.28H114.75a32.31,32.31,0,0,0-32.31,32.31v11.75H75.58a32.31,32.31,0,0,0-32.3,32.31v85.18c0,.25,0,.5,0,.75A32.31,32.31,0,0,0,17.9,289.14v23.62a32.32,32.32,0,0,0,32.31,32.31H591.55a32.31,32.31,0,0,0,32.31-32.31V289.14A32.23,32.23,0,0,0,612.21,264.3Z"/></clipPath><linearGradient id="New_Gradient_Swatch_4" x1="72.53" y1="43.78" x2="159.39" y2="194.22" gradientUnits="userSpaceOnUse"><stop offset="0" stop-color="#68acff"/><stop offset="0.23" stop-color="#65a7ff"/><stop offset="0.5" stop-color="#5b99ff"/><stop offset="0.79" stop-color="#4a81ff"/><stop offset="1" stop-color="#3b6bff"/></linearGradient><linearGradient id="New_Gradient_Swatch_4-2" x1="92.59" y1="82.94" x2="139.33" y2="163.9" xlink:href="#New_Gradient_Swatch_4"/><clipPath id="clip-path-2" transform="translate(0 -2.18)"><rect class="cls-1" x="8.03" y="-17.31" width="615.83" height="362.38"/></clipPath><linearGradient id="New_Gradient_Swatch_4-3" x1="377.61" y1="79.31" x2="508.7" y2="306.37" xlink:href="#New_Gradient_Swatch_4"/><pattern id="_10_dpi_20_" data-name="10 dpi 20%" width="28.8" height="28.8" patternUnits="userSpaceOnUse" viewBox="0 0 28.8 28.8"><rect class="cls-1" width="28.8" height="28.8"/><path class="cls-2" d="M28.8,30.24a1.44,1.44,0,1,0-1.44-1.44A1.44,1.44,0,0,0,28.8,30.24Z"/><path class="cls-2" d="M14.4,30.24A1.44,1.44,0,1,0,13,28.8,1.44,1.44,0,0,0,14.4,30.24Z"/><path class="cls-2" d="M28.8,15.84a1.44,1.44,0,1,0-1.44-1.44A1.44,1.44,0,0,0,28.8,15.84Z"/><path class="cls-2" d="M14.4,15.84A1.44,1.44,0,1,0,13,14.4,1.44,1.44,0,0,0,14.4,15.84Z"/><path class="cls-2" d="M7.2,23A1.44,1.44,0,1,0,5.76,21.6,1.44,1.44,0,0,0,7.2,23Z"/><path class="cls-2" d="M21.6,23a1.44,1.44,0,1,0-1.44-1.44A1.44,1.44,0,0,0,21.6,23Z"/><path class="cls-2" d="M7.2,8.64A1.44,1.44,0,1,0,5.76,7.2,1.44,1.44,0,0,0,7.2,8.64Z"/><path class="cls-2" d="M21.6,8.64A1.44,1.44,0,1,0,20.16,7.2,1.44,1.44,0,0,0,21.6,8.64Z"/><path class="cls-2" d="M0,30.24A1.44,1.44,0,0,0,1.44,28.8,1.45,1.45,0,0,0,0,27.36,1.44,1.44,0,0,0-1.44,28.8,1.43,1.43,0,0,0,0,30.24Z"/><path class="cls-2" d="M0,15.84A1.44,1.44,0,0,0,1.44,14.4,1.45,1.45,0,0,0,0,13,1.44,1.44,0,0,0-1.44,14.4,1.43,1.43,0,0,0,0,15.84Z"/><path class="cls-2" d="M28.8,1.44A1.45,1.45,0,0,0,30.24,0,1.44,1.44,0,0,0,28.8-1.44,1.43,1.43,0,0,0,27.36,0,1.44,1.44,0,0,0,28.8,1.44Z"/><path class="cls-2" d="M14.4,1.44A1.45,1.45,0,0,0,15.84,0,1.44,1.44,0,0,0,14.4-1.44,1.43,1.43,0,0,0,13,0,1.44,1.44,0,0,0,14.4,1.44Z"/><path class="cls-2" d="M0,1.44A1.45,1.45,0,0,0,1.44,0,1.44,1.44,0,0,0,0-1.44,1.43,1.43,0,0,0-1.44,0,1.44,1.44,0,0,0,0,1.44Z"/></pattern><linearGradient id="New_Gradient_Swatch_3" x1="475.82" y1="2.18" x2="475.82" y2="90.62" gradientUnits="userSpaceOnUse"><stop offset="0" stop-color="#5b2a8d"/><stop offset="0.17" stop-color="#4b2786"/><stop offset="0.43" stop-color="#38247d"/><stop offset="0.7" stop-color="#2e2379"/><stop offset="1" stop-color="#2a2277"/></linearGradient><linearGradient id="New_Gradient_Swatch_4-4" x1="142.41" y1="189.79" x2="203.06" y2="294.84" xlink:href="#New_Gradient_Swatch_4"/><linearGradient id="New_Gradient_Swatch_4-5" x1="25.59" y1="200.79" x2="103.29" y2="335.36" xlink:href="#New_Gradient_Swatch_4"/><linearGradient id="New_Gradient_Swatch_4-6" x1="192.98" y1="265.83" x2="228.19" y2="326.83" xlink:href="#New_Gradient_Swatch_4"/><linearGradient id="New_Gradient_Swatch_3-2" x1="250.3" y1="150.62" x2="259.01" y2="165.69" xlink:href="#New_Gradient_Swatch_3"/><linearGradient id="New_Gradient_Swatch_3-3" x1="198.88" y1="144.76" x2="247.71" y2="229.34" xlink:href="#New_Gradient_Swatch_3"/><pattern id="Diagonal_Lines_2" data-name="Diagonal Lines 2" width="72" height="72" patternTransform="translate(-63 -95.24) scale(1.36)" patternUnits="userSpaceOnUse" viewBox="0 0 72 72"><rect class="cls-1" width="72" height="72"/><line class="cls-1" x1="66" y1="84" x2="84" y2="66"/><line class="cls-1" x1="66" y1="90" x2="90" y2="66"/><line class="cls-1" x1="66" y1="96" x2="96" y2="66"/><line class="cls-1" x1="66" y1="102" x2="102" y2="66"/><line class="cls-1" x1="66" y1="108" x2="108" y2="66"/><line class="cls-1" x1="66" y1="114" x2="114" y2="66"/><line class="cls-1" x1="66" y1="120" x2="120" y2="66"/><line class="cls-1" x1="66" y1="126" x2="126" y2="66"/><line class="cls-1" x1="66" y1="132" x2="132" y2="66"/><line class="cls-1" x1="66" y1="138" x2="138" y2="66"/><line class="cls-1" x1="66" y1="144" x2="144" y2="66"/><line class="cls-1" x1="66" y1="150" x2="150" y2="66"/><line class="cls-1" x1="-6" y1="84" x2="12" y2="66"/><line class="cls-1" x1="-6" y1="90" x2="18" y2="66"/><line class="cls-1" x1="-6" y1="96" x2="24" y2="66"/><line class="cls-1" x1="-6" y1="102" x2="30" y2="66"/><line class="cls-1" x1="-6" y1="108" x2="36" y2="66"/><line class="cls-1" x1="-6" y1="114" x2="42" y2="66"/><line class="cls-1" x1="-6" y1="120" x2="48" y2="66"/><line class="cls-1" x1="-6" y1="126" x2="54" y2="66"/><line class="cls-1" x1="-6" y1="132" x2="60" y2="66"/><line class="cls-1" x1="-6" y1="138" x2="66" y2="66"/><line class="cls-1" x1="-6" y1="144" x2="72" y2="66"/><line class="cls-1" x1="-6" y1="150" x2="78" y2="66"/><line class="cls-1" x1="-78" y1="150" x2="6" y2="66"/><line class="cls-1" x1="66" y1="12" x2="84" y2="-6"/><line class="cls-1" x1="66" y1="18" x2="90" y2="-6"/><line class="cls-1" x1="66" y1="24" x2="96" y2="-6"/><line class="cls-1" x1="66" y1="30" x2="102" y2="-6"/><line class="cls-1" x1="66" y1="36" x2="108" y2="-6"/><line class="cls-1" x1="66" y1="42" x2="114" y2="-6"/><line class="cls-1" x1="66" y1="48" x2="120" y2="-6"/><line class="cls-1" x1="66" y1="54" x2="126" y2="-6"/><line class="cls-1" x1="66" y1="60" x2="132" y2="-6"/><line class="cls-1" x1="66" y1="66" x2="138" y2="-6"/><line class="cls-1" x1="66" y1="72" x2="144" y2="-6"/><line class="cls-1" x1="66" y1="78" x2="150" y2="-6"/><line class="cls-1" x1="-6" y1="12" x2="12" y2="-6"/><line class="cls-1" x1="-6" y1="18" x2="18" y2="-6"/><line class="cls-1" x1="-6" y1="24" x2="24" y2="-6"/><line class="cls-1" x1="-6" y1="30" x2="30" y2="-6"/><line class="cls-1" x1="-6" y1="36" x2="36" y2="-6"/><line class="cls-1" x1="-6" y1="42" x2="42" y2="-6"/><line class="cls-1" x1="-6" y1="48" x2="48" y2="-6"/><line class="cls-1" x1="-6" y1="54" x2="54" y2="-6"/><line class="cls-1" x1="-6" y1="60" x2="60" y2="-6"/><line class="cls-1" x1="-6" y1="66" x2="66" y2="-6"/><line class="cls-1" x1="-6" y1="72" x2="72" y2="-6"/><line class="cls-1" x1="-6" y1="78" x2="78" y2="-6"/><line class="cls-1" y1="78" x2="78"/><line class="cls-1" x1="6" y1="78" x2="78" y2="6"/><line class="cls-1" x1="12" y1="78" x2="78" y2="12"/><line class="cls-1" x1="18" y1="78" x2="78" y2="18"/><line class="cls-1" x1="24" y1="78" x2="78" y2="24"/><line class="cls-1" x1="30" y1="78" x2="78" y2="30"/><line class="cls-1" x1="36" y1="78" x2="78" y2="36"/><line class="cls-1" x1="42" y1="78" x2="78" y2="42"/><line class="cls-1" x1="48" y1="78" x2="78" y2="48"/><line class="cls-1" x1="54" y1="78" x2="78" y2="54"/><line class="cls-1" x1="60" y1="78" x2="78" y2="60"/><line class="cls-1" x1="66" y1="78" x2="78" y2="66"/><polygon class="cls-3" points="18 0 36 0 0 36 0 18 18 0"/><polygon class="cls-3" points="54 0 0 54 0 60 60 0 54 0"/><polygon class="cls-3" points="72 18 18 72 36 72 72 36 72 18"/><polygon class="cls-3" points="72 54 54 72 60 72 72 60 72 54"/><line class="cls-1" x1="-78" y1="78" x2="6" y2="-6"/><line class="cls-1" x1="-72" y1="78" x2="6"/><line class="cls-1" x1="-66" y1="78" x2="6" y2="6"/><line class="cls-1" x1="-60" y1="78" x2="6" y2="12"/><line class="cls-1" x1="-54" y1="78" x2="6" y2="18"/><line class="cls-1" x1="-48" y1="78" x2="6" y2="24"/><line class="cls-1" x1="-42" y1="78" x2="6" y2="30"/><line class="cls-1" x1="-36" y1="78" x2="6" y2="36"/><line class="cls-1" x1="-30" y1="78" x2="6" y2="42"/><line class="cls-1" x1="-24" y1="78" x2="6" y2="48"/><line class="cls-1" x1="-18" y1="78" x2="6" y2="54"/><line class="cls-1" x1="-12" y1="78" x2="6" y2="60"/><line class="cls-1" x1="-6" y1="78" x2="6" y2="66"/><line class="cls-1" x1="66" y1="6" x2="150" y2="-78"/><line class="cls-1" x1="-6" y1="6" x2="78" y2="-78"/><line class="cls-1" y1="6" x2="78" y2="-72"/><line class="cls-1" x1="6" y1="6" x2="78" y2="-66"/><line class="cls-1" x1="12" y1="6" x2="78" y2="-60"/><line class="cls-1" x1="18" y1="6" x2="78" y2="-54"/><line class="cls-1" x1="24" y1="6" x2="78" y2="-48"/><line class="cls-1" x1="30" y1="6" x2="78" y2="-42"/><line class="cls-1" x1="36" y1="6" x2="78" y2="-36"/><line class="cls-1" x1="42" y1="6" x2="78" y2="-30"/><line class="cls-1" x1="48" y1="6" x2="78" y2="-24"/><line class="cls-1" x1="54" y1="6" x2="78" y2="-18"/><line class="cls-1" x1="60" y1="6" x2="78" y2="-12"/><line class="cls-1" x1="66" y1="6" x2="78" y2="-6"/><line class="cls-1" x1="-78" y1="6" x2="6" y2="-78"/><line class="cls-1" x1="-72" y1="6" x2="6" y2="-72"/><line class="cls-1" x1="-66" y1="6" x2="6" y2="-66"/><line class="cls-1" x1="-60" y1="6" x2="6" y2="-60"/><line class="cls-1" x1="-54" y1="6" x2="6" y2="-54"/><line class="cls-1" x1="-48" y1="6" x2="6" y2="-48"/><line class="cls-1" x1="-42" y1="6" x2="6" y2="-42"/><line class="cls-1" x1="-36" y1="6" x2="6" y2="-36"/><line class="cls-1" x1="-30" y1="6" x2="6" y2="-30"/><line class="cls-1" x1="-24" y1="6" x2="6" y2="-24"/><line class="cls-1" x1="-18" y1="6" x2="6" y2="-18"/><line class="cls-1" x1="-12" y1="6" x2="6" y2="-12"/><line class="cls-1" x1="-6" y1="6" x2="6" y2="-6"/></pattern><linearGradient id="New_Gradient_Swatch_8" x1="255.79" y1="181.23" x2="259.07" y2="186.91" gradientUnits="userSpaceOnUse"><stop offset="0" stop-color="#4d5dec"/><stop offset="0.33" stop-color="#4136eb"/><stop offset="1" stop-color="#420087"/></linearGradient><linearGradient id="New_Gradient_Swatch_8-2" x1="261.06" y1="185.64" x2="266.85" y2="195.67" xlink:href="#New_Gradient_Swatch_8"/><linearGradient id="New_Gradient_Swatch_8-3" x1="248.3" y1="185.99" x2="253.4" y2="194.82" xlink:href="#New_Gradient_Swatch_8"/><linearGradient id="New_Gradient_Swatch_8-4" x1="255.22" y1="193.7" x2="259.2" y2="200.6" xlink:href="#New_Gradient_Swatch_8"/><linearGradient id="New_Gradient_Swatch_8-5" x1="254.81" y1="188.71" x2="260.28" y2="188.71" xlink:href="#New_Gradient_Swatch_8"/><linearGradient id="linear-gradient-3" x1="244.9" y1="203.97" x2="246.99" y2="207.6" gradientUnits="userSpaceOnUse"><stop offset="0" stop-color="#5b2a8d"/><stop offset="0.02" stop-color="#5a2a8c"/><stop offset="0.66" stop-color="#37247d"/><stop offset="1" stop-color="#2a2277"/></linearGradient><linearGradient id="New_Gradient_Swatch_6-2" x1="243.85" y1="168.09" x2="248.04" y2="168.09" xlink:href="#New_Gradient_Swatch_6"/><linearGradient id="linear-gradient-4" x1="268.29" y1="167.22" x2="271.32" y2="172.46" xlink:href="#linear-gradient-3"/><linearGradient id="linear-gradient-5" x1="256.17" y1="173.56" x2="259.2" y2="178.8" xlink:href="#linear-gradient-3"/><linearGradient id="New_Gradient_Swatch_6-3" x1="104.28" y1="180" x2="129.13" y2="223.04" xlink:href="#New_Gradient_Swatch_6"/><linearGradient id="linear-gradient-6" x1="425.82" y1="149.6" x2="408.2" y2="143.58" gradientTransform="translate(100.13 137.94) rotate(-24.63)" gradientUnits="userSpaceOnUse"><stop offset="0" stop-color="#efcf64"/><stop offset="1" stop-color="#f9945d"/></linearGradient><linearGradient id="linear-gradient-7" x1="536.73" y1="95.81" x2="542.05" y2="95.81" gradientTransform="matrix(1, 0, 0, 1, 0, 0)" xlink:href="#linear-gradient-6"/><linearGradient id="linear-gradient-8" x1="418.6" y1="184.79" x2="392.23" y2="170.89" xlink:href="#linear-gradient-6"/><linearGradient id="linear-gradient-9" x1="384.8" y1="163.44" x2="424.54" y2="163.44" gradientTransform="translate(100.13 140.12) rotate(-24.63)" xlink:href="#linear-gradient-6"/><linearGradient id="linear-gradient-10" x1="534.06" y1="137.79" x2="544.72" y2="137.79" gradientTransform="matrix(1, 0, 0, 1, 0, 0)" xlink:href="#linear-gradient-6"/><linearGradient id="linear-gradient-11" x1="279.75" y1="220.72" x2="308.32" y2="270.22" gradientUnits="userSpaceOnUse"><stop offset="0" stop-color="#9776f0"/><stop offset="0.33" stop-color="#8a6af3"/><stop offset="0.93" stop-color="#694af9"/><stop offset="1" stop-color="#6546fa"/></linearGradient><linearGradient id="linear-gradient-12" x1="149.13" y1="32.75" x2="192.77" y2="108.33" gradientTransform="matrix(1, 0, 0, 1, 0, 0)" xlink:href="#linear-gradient-6"/><linearGradient id="linear-gradient-13" x1="156.22" y1="70.05" x2="181.94" y2="114.59" gradientTransform="matrix(1, 0, 0, 1, 0, 0)" xlink:href="#linear-gradient-6"/><linearGradient id="linear-gradient-14" x1="159.96" y1="26.5" x2="185.76" y2="71.19" gradientTransform="matrix(1, 0, 0, 1, 0, 0)" xlink:href="#linear-gradient-6"/></defs><title>register</title><g class="cls-4"><g id="OBJECTS"><path class="cls-5" d="M540.59,87.85H413a42.08,42.08,0,0,0-34-17.22h-.44V65a42.15,42.15,0,0,0-42.15-42.15h-149A42.15,42.15,0,0,0,145.31,65v5.65H130.83a42.15,42.15,0,0,0-42.15,42.14v8.93a42.14,42.14,0,0,0-27.29,39.44V220a42.15,42.15,0,0,0,42.14,42.15H226.24A42.15,42.15,0,0,0,268.39,220V209.64H328.8a42.15,42.15,0,0,0,42,39H540.59a42.15,42.15,0,0,0,42.15-42.15V130A42.15,42.15,0,0,0,540.59,87.85Z" transform="translate(0 -2.18)"/><path class="cls-6" d="M612.21,264.3a32.29,32.29,0,0,0,.88-7.47V202a32.31,32.31,0,0,0-32.31-32.31H569v-42.1a32.31,32.31,0,0,0-32.31-32.31H524V75.69a32.32,32.32,0,0,0-32.31-32.31H234.19a32.32,32.32,0,0,0-32.31,32.31V95.28H114.75a32.31,32.31,0,0,0-32.31,32.31v11.75H75.58a32.31,32.31,0,0,0-32.3,32.31v85.18c0,.25,0,.5,0,.75A32.31,32.31,0,0,0,17.9,289.14v23.62a32.32,32.32,0,0,0,32.31,32.31H591.55a32.31,32.31,0,0,0,32.31-32.31V289.14A32.23,32.23,0,0,0,612.21,264.3Z" transform="translate(0 -2.18)"/><path class="cls-7" d="M282.41,43.38H234.19a32.32,32.32,0,0,0-32.31,32.31V95.28H114.75a32.31,32.31,0,0,0-32.31,32.31v11.75H75.58a32.31,32.31,0,0,0-32.3,32.31v85.18c0,.25,0,.5,0,.75A32.31,32.31,0,0,0,17.9,289.14v23.62a32.32,32.32,0,0,0,32.31,32.31h232.2Z" transform="translate(0 -2.18)"/><path class="cls-8" d="M409.8,118.79c0,13.56-4.64,24.56-18.2,24.56H321.82c-13.57,0-19.66-11-19.66-24.56v-26c0-13.57,5.51-24.56,19.08-24.56h70.93c13.57,0,17.63,11,17.63,24.56Z" transform="translate(0 -2.18)"/><polygon class="cls-9" points="339.83 83.35 379.88 104.25 339.83 125.14 339.83 83.35"/><g class="cls-10"><rect class="cls-11" x="61.39" y="50.21" width="109.14" height="137.58"/><rect class="cls-12" x="71.47" y="62.92" width="88.98" height="112.16"/><rect class="cls-13" x="86.59" y="86.4" width="58.73" height="74.03"/></g><g class="cls-14"><path class="cls-15" d="M528,313.7c-5.19-56.92,17.44-181.43-13-188.93a206.66,206.66,0,0,0-99.68,0c-30.44,7.5-7.81,132-13,188.93-4.58,50.31,10.93,44.85,62.84,44.85S532.54,364,528,313.7Z" transform="translate(0 -2.18)"/><path class="cls-15" d="M483.55,98.48,465.12,101,446.7,98.48V120c12.41,4.23,18.36,4.67,18.42,4.68h0c.05,0,6-.45,18.42-4.68Z" transform="translate(0 -2.18)"/><path class="cls-16" d="M429.43,128.7C402,93.63,327.94,199.46,317.85,231.3s19.49,9.08,59.42-28.62S440.2,142.5,429.43,128.7Z" transform="translate(0 -2.18)"/><path class="cls-16" d="M493.63,130.12c28.14-34.47,99.93,72.94,109.33,105s-19.69,8.65-58.79-29.9S482.56,143.68,493.63,130.12Z" transform="translate(0 -2.18)"/><path class="cls-16" d="M591,225.57c36.69,1.06-9.38,109.2-28.26,133.06s-14.61-9.08-3.79-57.21S576.52,225.15,591,225.57Z" transform="translate(0 -2.18)"/><path class="cls-16" d="M550.89,357.84c12.46-5.67,19.82,16.94,22,24.74,3.62,12.71-1.77,30.31-6.79,31.84s-11.53-27.91-13-28.52.36,14-4.5,15-9.73-18.09-8.7-26.41S543.08,361.39,550.89,357.84Z" transform="translate(0 -2.18)"/><path class="cls-16" d="M328.51,242.71c-26.45,25.45-71.4-83.16-75.21-113.35s16.72-4.07,43.5,37.36S338.92,232.7,328.51,242.71Z" transform="translate(0 -2.18)"/><path class="cls-16" d="M267.84,122.51l-.11-1.06-.49-16.19a12.85,12.85,0,0,0-1.69-6l-6.31-11s-4.35,3.53-3,7.33c.93,2.61.31,7.37-.17,10.14l-3.61-4.6L240.27,87.17a5.86,5.86,0,0,0-9.12.38l-2.93,4a11.9,11.9,0,0,0-1.37,11.75l6.5,15.19,24,24.11,14-12.19Z" transform="translate(0 -2.18)"/><path class="cls-17" d="M446.7,118.34c3.78,5.68,9.46,8.84,19.28,8.84s16.3-5.81,17.57-8.51c0,0,31.17,2.15,42,6s63.05,74.16,63.05,74.16-9.3,18.18-32.46,27L532.9,203.81V349.29s-26.65,7.64-68.5,7.64-72.15-6.34-72.15-6.34l3.9-152.1-30.3,25.66s-16.92-8.83-30.76-29.94c0,0,33.7-43.58,51.21-61.81C402,116,446.7,118.34,446.7,118.34Z" transform="translate(0 -2.18)"/><g class="cls-18"><path class="cls-19" d="M503.53,198.32h-.07l-18.4-.18a5.4,5.4,0,0,1-4.55-2.26,8.61,8.61,0,0,1-1.35-5.06l.07-6.85a8.86,8.86,0,0,1,1.36-5,5.29,5.29,0,0,1,4.52-2.19l18.71.18a4.75,4.75,0,0,1,4.31,2.31,9.61,9.61,0,0,1,1.05,5l-.07,6.85a9.17,9.17,0,0,1-1.23,5A4.93,4.93,0,0,1,503.53,198.32Zm-18.49-20a3.64,3.64,0,0,0-3.17,1.53A7.36,7.36,0,0,0,480.8,184l-.07,6.85a7.09,7.09,0,0,0,1.06,4.13,3.83,3.83,0,0,0,3.29,1.6l18.4.18a3.32,3.32,0,0,0,3.09-1.51,7.65,7.65,0,0,0,1-4.14l.07-6.85a8.08,8.08,0,0,0-.83-4.18,3.2,3.2,0,0,0-3-1.55l-18.7-.18Z" transform="translate(0 -2.18)"/><polygon class="cls-19" points="489.96 179.98 500.47 185.59 489.86 191 489.96 179.98"/></g><path class="cls-20" d="M526.48,350.84c4.18-.91,6.42-1.55,6.42-1.55V203.81l23.23,22.07q2.22-.85,4.28-1.81l-31.87-36.4Z" transform="translate(0 -2.18)"/><path class="cls-21" d="M397.85,187.54l-37.13,33.38a53.28,53.28,0,0,0,5.13,3.23l30.3-25.66Z" transform="translate(0 -2.18)"/><path class="cls-20" d="M397.85,187.54l-37.13,33.38a53.28,53.28,0,0,0,5.13,3.23l30.3-25.66Z" transform="translate(0 -2.18)"/><path class="cls-16" d="M479.82,14.64C449.19,9.92,439.16,37.86,436,60c-.31,2-.49,3.88-.67,5.73l0,.59c-3,21.93,7.11,46.5,29,49.87,22.35,3.45,41.33-18,43.83-40.18,0-.44.08-.84.12-1.26.26-1.12.51-2.27.76-3.5C513.23,49.28,512.69,19.71,479.82,14.64Z" transform="translate(0 -2.18)"/><path class="cls-16" d="M509.18,71.26c2-.31,6.92-1.75,4.67,7.25C510,94.06,503.27,92,503.27,92c.76-2.18,1.85-5.24,2.93-8.82-1.63-1.79,1.05-3.38,1.42-5.2a3.77,3.77,0,0,0,.28-1.1C508.38,75.1,508.77,73.28,509.18,71.26Z" transform="translate(0 -2.18)"/><path class="cls-15" d="M507.9,76.9s2.57-2.47,4-1.11-.48,6.25-2.23,9.06-3.2,2.84-3.32,2,3-2.2,2.21-3.77-1.79-2-1.57-2.8S507.9,76.9,507.9,76.9Z" transform="translate(0 -2.18)"/><path class="cls-16" d="M436,60c-1.84-.91-6.07-3.75-6.64,5.51-1,16,6,16.06,6,16.06-.06-2.3-.19-5.55-.13-9.29,2.09-1.21,0-3.53.2-5.38a4.17,4.17,0,0,1,.07-1.14C435.58,63.87,435.76,62,436,60Z" transform="translate(0 -2.18)"/><path class="cls-15" d="M435.5,65.73s-1.71-3.13-3.5-2.26-1.42,6.1-.6,9.3,2.19,3.68,2.57,2.89-2.2-3-1-4.26,2.3-1.36,2.34-2.2S435.5,65.73,435.5,65.73Z" transform="translate(0 -2.18)"/><path class="cls-22" d="M493,70.26a4,4,0,1,1-3.34-4.57A4,4,0,0,1,493,70.26Z" transform="translate(0 -2.18)"/><path class="cls-22" d="M459.43,65.08a4,4,0,1,1-3.34-4.57A4,4,0,0,1,459.43,65.08Z" transform="translate(0 -2.18)"/><path class="cls-22" d="M483.18,59.9s10.13,1.44,15.4,3.47a4,4,0,0,0-2.32-3c-2.15-1-11.64-3.92-12.56-3.82S483.18,59.9,483.18,59.9Z" transform="translate(0 -2.18)"/><path class="cls-22" d="M464,56.94s-10.1-1.67-15.74-1.33a4,4,0,0,1,3.13-2.19c2.35-.31,12.28-.23,13.13.14S464,56.94,464,56.94Z" transform="translate(0 -2.18)"/><path class="cls-15" d="M474.85,84.93c-.11.67-2.53.85-5.41.4s-5.14-1.34-5-2,2.52-.84,5.41-.39S475,84.27,474.85,84.93Z" transform="translate(0 -2.18)"/><path class="cls-15" d="M471.61,101.86c-.09.58-2.23.74-4.77.35s-4.54-1.19-4.45-1.77,2.23-.74,4.77-.35S471.7,101.27,471.61,101.86Z" transform="translate(0 -2.18)"/><path class="cls-23" d="M482.67,90.88c-1.73-1.9-9.32-.64-13.91-1.12-4.53-.92-11.39-4.41-13.61-3.12a1.55,1.55,0,0,0-.71,1.38c-.06,2.56,3.68,7.5,13.19,9,9.53,1.38,14.59-2.2,15.3-4.66A1.56,1.56,0,0,0,482.67,90.88Z" transform="translate(0 -2.18)"/><path class="cls-24" d="M482.67,90.88c-1.73-1.9-9.32-.64-13.91-1.12-4.53-.92-11.39-4.41-13.61-3.12a1.55,1.55,0,0,0-.71,1.38,61.77,61.77,0,0,0,13.87,4.59,61.77,61.77,0,0,0,14.62-.2A1.56,1.56,0,0,0,482.67,90.88Z" transform="translate(0 -2.18)"/><path class="cls-25" d="M511.81,20.23c-1.1-1.86-4.36-2.16-6.29-2.31C504,8.58,491.08,3.7,482.1,2.49c-1-.13-1.92-.22-2.8-.27-8.39-.44-17.79,2.46-25.16,6.35C445.69,13,442.32,19.42,439.32,28A73.8,73.8,0,0,0,436,42.8a96.17,96.17,0,0,0-.58,19.85l.06.68.05-.17-.16,16.91L436.49,79s.22-16.63,1.5-23.58l4.67-14.51,10.54-1.36a13.91,13.91,0,0,1-5.27,4c5.51-.29,11-.6,16.52-1.07,3.81-.32,7.61-.72,11.41-1.23l-2.09,4c20.45-1.14,30.78-9.31,30.78-9.31,4.37,8.21,5.27,18.34,4.34,29.46l-.12-.36c-.31,6-5.8,24.27-5.8,24.27l.79,1.41,6.46-21.18-.13-.39C514.15,59,521.38,36.42,511.81,20.23Zm-68.6,18.94.84-2.61a13.86,13.86,0,0,1,1.44,0Z" transform="translate(0 -2.18)"/><path class="cls-26" d="M467.79,77.16c-.56,1.64-1.49,2.8-2.09,2.6s-.62-1.69-.06-3.34,1.49-2.8,2.08-2.6S468.35,75.51,467.79,77.16Z" transform="translate(0 -2.18)"/><circle class="cls-27" cx="487.59" cy="65.73" r="1.08"/><circle class="cls-27" cx="454.44" cy="60.53" r="1.08"/><path class="cls-15" d="M254,124.62c-3.51-5.11-1-12,1.18-18l.38-1.07,1,.33-.39,1.08c-2.12,5.82-4.52,12.42-1.3,17.11Z" transform="translate(0 -2.18)"/><path class="cls-15" d="M245.32,101.84c-.08-.11-7.38-11-12.66-15l.61-.8c5.41,4.12,12.58,14.82,12.88,15.27Z" transform="translate(0 -2.18)"/><path class="cls-15" d="M240.23,104.55c-.06-.1-6.52-9.75-11.12-14.37l.7-.71C234.49,94.16,241,103.9,241.06,104Z" transform="translate(0 -2.18)"/><rect class="cls-15" x="231.75" y="93.33" width="1" height="17.28" transform="matrix(0.82, -0.57, 0.57, 0.82, -16.81, 147.81)"/><path class="cls-28" d="M224,155a64,64,0,0,1-2.85,13.14,89.29,89.29,0,0,1-5.18,12.36c-1.28,2.49-4,5.62-4,8.6-2.77.36-5.9.21-8.81.36,3.2,1.84,4.83,2.13,3.2,5.75-3.2,6.89-7.46,13.21-10.8,20-1.57,3.13-3.48,6.4-4.34,9.81-.64,2.7-.21,6.61-2.13,8.88-2.34,2.77-12.22-1.35-15.27-1.42,2.27,2.63,6.75,6.75,10.37,7.1-1.92,1.07-5,1.28-7.32,1.35,2.56,1.14,5.4,1.85,7.75,2.92-.64,2.34-.5,5-1,7.53-.64,3.19-1,6.25-1.56,9.45-.85,4.4-.85,14.63-4.62,17.47s-15.77,3.77-19.61,1.57c3.77,3.9,13.64,6.6,18.83,5.11-.36,8.45-4.12,18.76-8.17,26.15-4.48,8.09-12.72,11.93-20.25,10.15A17.2,17.2,0,0,1,138,314c.07-1.71.29-3.34.43-5.05a182.29,182.29,0,0,1,4-24.72,226.13,226.13,0,0,1,17.05-46.68c14.56-30,38.15-52.93,57.76-79.35.14-.22-.15-.43-.29-.22-11.15,14.28-23.8,27.21-35.45,41.14a198.61,198.61,0,0,0-26.07,40.07,231.13,231.13,0,0,0-16.63,47.17c-2.41,10-5.4,21-6.18,31.62-5.82,4-14.63,3.62-20.67.42-8.17-4.26-10.94-12.93-10.59-21.67.14-4,.86-8.24,1.28-12.07.43-3.41,2.77-7.18,2.13-10.66,3.2-.43,6.47.21,9.67.07-1.92-2.35-5.26-4-7.89-5.47,1.28-2.56,2.34-8.67,4.33-10.52s7.82-.42,10.38-.07a23.36,23.36,0,0,0-6.4-5.4c-.07-7.46,5-16.41,8.38-22.8,2.56-4.83,6-9.38,8.39-14.28,3.48,1.85,7.32,3.27,10.87,5.33,4.33,2.48,8.74,5.47,13.71,6.6-2.56-2.48-5.26-4.9-8-7.1-4.26-3.41-7-8.17-11.22-11.51,1.63-1.85,2.34-4.12,3.69-6s13.36-18.33,14.92-17c3.48,2.91,8,5,11.51,8.17-1.28-2.7-2.7-6.32-4.05-8.88,2,1.64,5.68,3.13,7.46,4.34-1-2.42-3.62-9.17-6.25-9.52,4.05-1.35,7.31-4.27,10.51-7a48.34,48.34,0,0,1,10-6.18c2.48-1.21,5.33-2,7.53-3.34,1.14,2,5.61,2.7,7.53,3.91-.07-2.2-1.21-5.11-2.13-7.25,9.31-5.25,19.25-7.81,25.86-17.12C222.62,144.2,224.18,152.94,224,155Z" transform="translate(0 -2.18)"/><path class="cls-29" d="M217.22,158.2c-19.61,26.42-43.2,49.37-57.76,79.35a226.13,226.13,0,0,0-17.05,46.68,182.29,182.29,0,0,0-4,24.72c-.14,1.71-.36,3.34-.43,5.05a6.55,6.55,0,0,1-.78-1.14A13,13,0,0,1,132.6,318c.78-10.66,3.77-21.6,6.18-31.62a231.13,231.13,0,0,1,16.63-47.17,198.61,198.61,0,0,1,26.07-40.07c11.65-13.93,24.3-26.86,35.45-41.14C217.07,157.77,217.36,158,217.22,158.2Z" transform="translate(0 -2.18)"/><path class="cls-29" d="M139.16,406.42c.5,2.84-7.8,3.4-8.44.63-1.28-5.4,1.53-83.39,1.88-89.07a13,13,0,0,0,4.62-5.12A6.55,6.55,0,0,0,138,314C137.29,320.67,138.1,399.81,139.16,406.42Z" transform="translate(0 -2.18)"/><path class="cls-30" d="M9,220a48.5,48.5,0,0,0,3.66,9.56A67.24,67.24,0,0,0,18,238.29c1.25,1.72,3.64,3.77,4,6,2.13-.05,4.47-.52,6.67-.75-2.19,1.76-3.39,2.16-1.74,4.7,3.2,4.82,7.14,9.09,10.44,13.84a38.25,38.25,0,0,1,4.4,6.88c.79,2,.92,4.95,2.62,6.44,2.09,1.81,9.05-2.43,11.34-2.84-1.41,2.24-4.3,5.86-7,6.55a13.41,13.41,0,0,0,5.66.17c-1.79,1.15-3.85,2-5.49,3.09.75,1.69,1,3.73,1.62,5.55.85,2.33,1.47,4.59,2.27,6.93,1.15,3.22,2.33,10.92,5.49,12.62s12.31,1,14.94-1.08c-2.38,3.37-9.51,6.54-13.58,6,1.24,6.32,5.26,13.64,9.16,18.74,4.31,5.58,11,7.51,16.42,5.31a13.08,13.08,0,0,0,6.85-6.69c-.25-1.28-.6-2.48-.9-3.75a139,139,0,0,0-5.85-18.15,172.8,172.8,0,0,0-18.22-33.17C52.7,253.83,32.3,239.28,14.49,221.65c-.13-.15.06-.34.19-.2,10,9.46,21,17.74,31.43,26.88a151.31,151.31,0,0,1,24.25,27.15,175.7,175.7,0,0,1,18,33.59c3,7.26,6.48,15.15,8.3,23.08,4.84,2.32,11.43,1,15.61-2.07,5.65-4.15,6.74-11,5.46-17.53-.56-3-1.59-6.1-2.35-8.94-.72-2.52-2.92-5.08-2.84-7.78-2.45.05-4.84.91-7.26,1.17,1.17-2,3.5-3.6,5.3-5-1.25-1.77-2.76-6.25-4.47-7.41s-5.93.58-7.82,1.14a17.84,17.84,0,0,1,4.19-4.8c-.8-5.62-5.69-11.77-8.94-16.2-2.48-3.34-5.63-6.36-8-9.78-2.4,1.79-5.13,3.31-7.56,5.27-3,2.37-6,5.12-9.56,6.55,1.64-2.16,3.39-4.29,5.22-6.27,2.82-3.06,4.35-7,7.12-10-1.44-1.2-2.24-2.83-3.48-4.12S65.12,234.14,64.1,235.33c-2.29,2.6-5.41,4.72-7.73,7.48.66-2.18,1.31-5.07,2-7.15-1.31,1.46-3.92,3-5.12,4.12.47-1.93,1.67-7.31,3.61-7.89-3.2-.54-6-2.36-8.72-4a36.4,36.4,0,0,0-8.2-3.51c-2-.62-4.24-.88-6-1.64-.63,1.63-3.91,2.68-5.22,3.81a17.38,17.38,0,0,1,.77-5.7c-7.61-2.89-15.39-3.66-21.44-9.91C8.81,211.74,8.64,218.49,9,220Z" transform="translate(0 -2.18)"/><path class="cls-29" d="M14.49,221.65c17.81,17.63,38.21,32.18,52.63,53.06a172.8,172.8,0,0,1,18.22,33.17A139,139,0,0,1,91.19,326c.3,1.27.65,2.47.9,3.75a4.4,4.4,0,0,0,.46-.95,9.81,9.81,0,0,0,4.07,3.32c-1.82-7.93-5.33-15.82-8.3-23.08a175.7,175.7,0,0,0-18-33.59,151.31,151.31,0,0,0-24.25-27.15c-10.38-9.14-21.39-17.42-31.43-26.88C14.55,221.31,14.36,221.5,14.49,221.65Z" transform="translate(0 -2.18)"/><path class="cls-29" d="M101.44,399c0,2.2,6.87,1.61,7-.54.33-4.22-10.94-62.05-11.86-66.29a9.81,9.81,0,0,1-4.07-3.32,4.4,4.4,0,0,1-.46.95C93.4,334.72,101.48,393.88,101.44,399Z" transform="translate(0 -2.18)"/><path class="cls-31" d="M255.33,247.88a43.29,43.29,0,0,1-3.69,8.32,61,61,0,0,1-5.14,7.49c-1.19,1.47-3.41,3.17-3.82,5.15-1.89-.14-3.94-.67-5.9-1,1.87,1.66,2.91,2.07,1.33,4.25-3.07,4.13-6.76,7.74-9.91,11.8a34.06,34.06,0,0,0-4.23,5.91c-.79,1.7-1.05,4.35-2.63,5.59-1.94,1.52-7.92-2.57-9.94-3,1.15,2.06,3.55,5.4,5.91,6.14a12.11,12.11,0,0,1-5-.11c1.54,1.1,3.32,2,4.73,3-.74,1.47-1,3.28-1.69,4.86-.87,2-1.52,4-2.34,6.05-1.17,2.81-2.58,9.59-5.47,11s-11,.32-13.21-1.66c2,3.11,8.13,6.25,11.78,6-1.4,5.56-5.31,11.87-9,16.21C193,348.56,187,350,182.23,347.75a11.64,11.64,0,0,1-5.78-6.26c.28-1.12.65-2.17,1-3.28a122.46,122.46,0,0,1,6-15.85,154,154,0,0,1,17.72-28.61c13.79-17.88,32.58-29.85,49.22-44.68a.12.12,0,1,0-.16-.18c-9.36,7.93-19.52,14.77-29.16,22.4a134.85,134.85,0,0,0-22.81,23,156.55,156.55,0,0,0-17.51,29c-3,6.31-6.46,13.15-8.45,20.11-4.41,1.84-10.2.39-13.77-2.56-4.83-3.95-5.47-10.08-4-15.83.64-2.61,1.69-5.34,2.5-7.83.76-2.2,2.83-4.38,2.88-6.77,2.18.15,4.26,1,6.4,1.37-1-1.82-2.94-3.36-4.48-4.71,1.2-1.52,2.75-5.43,4.32-6.38s5.25.8,6.89,1.38a15.79,15.79,0,0,0-3.49-4.46c1-5,5.6-10.19,8.69-14,2.36-2.85,5.3-5.39,7.52-8.31,2.06,1.7,4.41,3.17,6.48,5,2.53,2.25,5,4.83,8.18,6.27-1.35-2-2.81-4-4.34-5.81-2.36-2.85-3.54-6.39-5.86-9.18,1.33-1,2.12-2.41,3.28-3.5s11.38-10.31,12.23-9.2c1.9,2.41,4.58,4.43,6.51,7-.48-2-.93-4.57-1.47-6.45,1.1,1.36,3.34,2.85,4.35,3.9-.33-1.74-1.14-6.58-2.83-7.17,2.87-.34,5.43-1.82,7.93-3.17a31.57,31.57,0,0,1,7.44-2.73c1.82-.46,3.81-.59,5.46-1.18.48,1.47,3.35,2.56,4.45,3.62a15.55,15.55,0,0,0-.41-5.09c6.89-2.21,13.84-2.54,19.5-7.8C255.92,240.53,255.75,246.54,255.33,247.88Z" transform="translate(0 -2.18)"/><path class="cls-29" d="M250.41,249.07c-16.64,14.83-35.43,26.8-49.22,44.68a154,154,0,0,0-17.72,28.61,122.46,122.46,0,0,0-6,15.85c-.33,1.11-.7,2.16-1,3.28a3.89,3.89,0,0,1-.36-.86,8.76,8.76,0,0,1-3.77,2.76c2-7,5.47-13.8,8.45-20.11a156.55,156.55,0,0,1,17.51-29,134.85,134.85,0,0,1,22.81-23c9.64-7.63,19.8-14.47,29.16-22.4A.12.12,0,1,1,250.41,249.07Z" transform="translate(0 -2.18)"/><path class="cls-29" d="M164.92,402.52c-.06,2-6.17,1.12-6.22-.81-.1-3.75,12.61-54.6,13.62-58.32a8.76,8.76,0,0,0,3.77-2.76,3.89,3.89,0,0,0,.36.86C175.06,345.83,165.13,398,164.92,402.52Z" transform="translate(0 -2.18)"/></g><rect class="cls-32" y="326.57" width="641.52" height="32.64"/><rect class="cls-33" x="164.69" y="334.61" width="119.72" height="17.46" rx="7.53"/><rect class="cls-33" x="305.76" y="334.76" width="66.9" height="9.79" rx="4.3"/><path class="cls-33" d="M142.94,349H42.46a4.9,4.9,0,0,1-4.9-4.89h0a4.91,4.91,0,0,1,4.9-4.9H142.94a4.91,4.91,0,0,1,4.9,4.9h0A4.9,4.9,0,0,1,142.94,349Z" transform="translate(0 -2.18)"/><rect class="cls-33" x="559.94" y="328.54" width="66.9" height="9.79" rx="4.3"/><path class="cls-33" d="M537.52,345.41H430.36a3.81,3.81,0,0,1-3.81-3.81h0a3.8,3.8,0,0,1,3.81-3.8H537.52a3.8,3.8,0,0,1,3.8,3.8h0A3.81,3.81,0,0,1,537.52,345.41Z" transform="translate(0 -2.18)"/><path class="cls-33" d="M630.2,371.81H11.31A11.31,11.31,0,0,1,0,360.5H641.52A11.31,11.31,0,0,1,630.2,371.81Z" transform="translate(0 -2.18)"/><path class="cls-34" d="M221.59,351.76a2,2,0,0,1-2-2V218.45a2,2,0,0,1,4,0V349.76A2,2,0,0,1,221.59,351.76Z" transform="translate(0 -2.18)"/><path class="cls-34" d="M221.59,226.5h0a5.53,5.53,0,0,1-5.53-5.52v-5.87a5.54,5.54,0,0,1,5.53-5.53h0a5.53,5.53,0,0,1,5.52,5.53V221A5.52,5.52,0,0,1,221.59,226.5Z" transform="translate(0 -2.18)"/><rect class="cls-34" x="212.49" y="261.95" width="18.2" height="39.1"/><rect class="cls-34" x="216.06" y="242.4" width="11.05" height="39.1"/><path class="cls-34" d="M259.57,344.51a2,2,0,0,1-1.53-.71l-36.25-43-36.24,43a2,2,0,0,1-3.06-2.57l37.18-44.16a2,2,0,0,1,2-1.6H222a2,2,0,0,1,1.82,1.15,2.59,2.59,0,0,1,.14.45l37.19,44.16a2,2,0,0,1-1.53,3.28Z" transform="translate(0 -2.18)"/><path class="cls-35" d="M247.81,152.72h14.26a4.3,4.3,0,0,1,4.3,4.3v4.41a0,0,0,0,1,0,0H243.51a0,0,0,0,1,0,0V157A4.3,4.3,0,0,1,247.81,152.72Z"/><path class="cls-36" d="M274.1,159.2H231a6.91,6.91,0,0,1-6.24-3.94l-2.86-6H191.44l-2.86,6a6.93,6.93,0,0,1-6.24,3.94h-9.27a2.12,2.12,0,0,0-2.12,2.12v52.47a2.12,2.12,0,0,0,2.12,2.12h101a2.13,2.13,0,0,0,2.13-2.12V161.32A2.13,2.13,0,0,0,274.1,159.2Z" transform="translate(0 -2.18)"/><rect class="cls-37" x="176.55" y="162.29" width="60.79" height="46.19"/><rect class="cls-38" x="176.55" y="162.29" width="60.79" height="46.19"/><path class="cls-34" d="M257.55,181a9.91,9.91,0,1,0,9.91,9.91A9.9,9.9,0,0,0,257.55,181Zm0,15.79a5.88,5.88,0,1,1,5.88-5.88A5.88,5.88,0,0,1,257.55,196.77Z" transform="translate(0 -2.18)"/><g class="cls-18"><path class="cls-39" d="M253.31,186a6.4,6.4,0,0,1,8-.39l2-2a9.21,9.21,0,0,0-11.93.4Z" transform="translate(0 -2.18)"/><path class="cls-40" d="M264,190.89a6.44,6.44,0,0,1-1.59,4.24l2,2a9.22,9.22,0,0,0-.61-13l-2,2A6.48,6.48,0,0,1,264,190.89Z" transform="translate(0 -2.18)"/><path class="cls-41" d="M251.08,190.89a6.47,6.47,0,0,1,1.75-4.42l-2-2a9.21,9.21,0,0,0-.57,12.11l2-2A6.34,6.34,0,0,1,251.08,190.89Z" transform="translate(0 -2.18)"/><path class="cls-42" d="M262,195.6a6.43,6.43,0,0,1-9.27-.45l-2,2a9.21,9.21,0,0,0,13.19.44Z" transform="translate(0 -2.18)"/><circle class="cls-43" cx="257.54" cy="188.71" r="2.73"/></g><path class="cls-44" d="M248,205.78a2.1,2.1,0,1,1-2.1-2.09A2.1,2.1,0,0,1,248,205.78Z" transform="translate(0 -2.18)"/><path class="cls-34" d="M245.94,208.38a2.6,2.6,0,1,1,2.6-2.6A2.6,2.6,0,0,1,245.94,208.38Zm0-4.19a1.6,1.6,0,1,0,1.6,1.59A1.59,1.59,0,0,0,245.94,204.19Z" transform="translate(0 -2.18)"/><path class="cls-45" d="M248,168.09a2.1,2.1,0,1,1-2.1-2.1A2.1,2.1,0,0,1,248,168.09Z" transform="translate(0 -2.18)"/><path class="cls-34" d="M245.94,170.68a2.6,2.6,0,1,1,2.6-2.59A2.59,2.59,0,0,1,245.94,170.68Zm0-4.19a1.6,1.6,0,1,0,1.6,1.6A1.6,1.6,0,0,0,245.94,166.49Z" transform="translate(0 -2.18)"/><path class="cls-46" d="M272.83,169.84a3,3,0,1,1-3-3A3,3,0,0,1,272.83,169.84Z" transform="translate(0 -2.18)"/><path class="cls-34" d="M269.8,173.37a3.53,3.53,0,1,1,3.53-3.53A3.54,3.54,0,0,1,269.8,173.37Zm0-6.06a2.53,2.53,0,1,0,2.53,2.53A2.54,2.54,0,0,0,269.8,167.31Z" transform="translate(0 -2.18)"/><path class="cls-47" d="M260.72,176.18a3,3,0,1,1-3-3A3,3,0,0,1,260.72,176.18Z" transform="translate(0 -2.18)"/><path class="cls-34" d="M257.69,179.71a3.53,3.53,0,1,1,3.53-3.53A3.54,3.54,0,0,1,257.69,179.71Zm0-6.06a2.53,2.53,0,1,0,2.53,2.53A2.53,2.53,0,0,0,257.69,173.65Z" transform="translate(0 -2.18)"/><path class="cls-34" d="M216.66,158.52H197a.91.91,0,0,1-.87-1.16l.84-2.94a.89.89,0,0,1,.87-.65h18a.9.9,0,0,1,.87.65l.84,2.94A.91.91,0,0,1,216.66,158.52Z" transform="translate(0 -2.18)"/><path class="cls-24" d="M317.07,323.48a6.3,6.3,0,0,1-6.28-6.27l0-13h6.1v-3.83h-7a2.9,2.9,0,0,0-2.9,2.9v13.9a10.11,10.11,0,0,0,10.1,10.1h.77v-3.82Z" transform="translate(0 -2.18)"/><path class="cls-24" d="M362.28,297.15H316.14v33.39a8.25,8.25,0,0,0,2.4,5.8l4,4v1.48h33.31v-1.48l4-4a8.21,8.21,0,0,0,2.41-5.8Z" transform="translate(0 -2.18)"/><path class="cls-48" d="M604.88,270.56h0C594,282.8,588,305.67,591.47,321.66h0C602.31,309.42,608.32,286.54,604.88,270.56Z" transform="translate(0 -2.18)"/><path class="cls-49" d="M591.43,262.15h0c-10.69,18.62-9.79,48.26,2,66.2h0C604.15,309.73,603.25,280.08,591.43,262.15Z" transform="translate(0 -2.18)"/><path class="cls-50" d="M618.46,276.83h0c-14,8.48-26.5,28.54-28,44.83h0C604.49,313.19,617,293.12,618.46,276.83Z" transform="translate(0 -2.18)"/><path class="cls-50" d="M575.29,272.84h0c-1.23,16.31,7.84,38.15,20.25,48.8h0C596.76,305.33,587.7,283.49,575.29,272.84Z" transform="translate(0 -2.18)"/><path class="cls-48" d="M565.16,274.91h0c14,8.39,26.67,28.38,28.23,44.66h0C579.35,311.18,566.72,291.19,565.16,274.91Z" transform="translate(0 -2.18)"/><path class="cls-21" d="M567.54,299.25s0,20.2,9.14,36.37H607c9.15-16.17,9.15-36.37,9.15-36.37Z" transform="translate(0 -2.18)"/><path class="cls-24" d="M567.54,299.25s0,20.2,9.14,36.37H607c9.15-16.17,9.15-36.37,9.15-36.37Z" transform="translate(0 -2.18)"/><path class="cls-51" d="M615.56,307.33c.16-1.34.27-2.56.35-3.62H567.76c.08,1.06.2,2.28.36,3.62Z" transform="translate(0 -2.18)"/><path class="cls-52" d="M134.39,184H99a6.37,6.37,0,0,0-6.37,6.36v22.27A6.37,6.37,0,0,0,99,219h9.65l8,8.52,8-8.52h9.65a6.37,6.37,0,0,0,6.37-6.37V190.38A6.37,6.37,0,0,0,134.39,184Z" transform="translate(0 -2.18)"/><path class="cls-53" d="M107.14,204.65a6.28,6.28,0,0,1,8.89-8.88l.8.8.79-.8a6.28,6.28,0,0,1,8.89,8.88l-9.68,9.69Z" transform="translate(0 -2.18)"/><polygon class="cls-54" points="548.25 99.39 548.25 95.56 539.39 95.56 530.53 95.56 530.53 99.39 539.39 99.39 548.25 99.39"/><path class="cls-55" d="M542.05,97.73V96.56a2.66,2.66,0,0,0-5.32,0v1.17h5.32Z" transform="translate(0 -2.18)"/><polygon class="cls-56" points="539.39 127.92 539.39 127.92 518.5 127.92 518.5 132.95 539.39 132.95 539.39 132.95 560.28 132.95 560.28 127.92 539.39 127.92"/><path class="cls-57" d="M559.91,130.12h-41c.83-2.12,2.71-4.38,4.07-6.36.22-.33.45-.67.64-1a8.34,8.34,0,0,0,.74-1.51,5.11,5.11,0,0,0,.14-.61c.06-.28.09-.61.13-1,.4-4.08.13-12.76,5.93-18.11h17.71c5.81,5.36,5.55,14,5.94,18.12.05.37.08.7.13,1a5,5,0,0,0,.15.61,7.73,7.73,0,0,0,.74,1.51c.19.31.41.64.64,1C557.2,125.74,559.08,128,559.91,130.12Z" transform="translate(0 -2.18)"/><path class="cls-58" d="M534.06,135.13a5.34,5.34,0,0,0,5.33,5.33h0a5.33,5.33,0,0,0,5.33-5.33H534.06Z" transform="translate(0 -2.18)"/><rect class="cls-59" x="266.38" y="225.37" width="55.32" height="40.2" rx="7.28"/><path class="cls-9" d="M294,241a7.67,7.67,0,1,0,7.67,7.67A7.68,7.68,0,0,0,294,241Zm0,12.58a4.91,4.91,0,1,1,4.9-4.91A4.91,4.91,0,0,1,294,253.53Zm-8.78-11.2a1.38,1.38,0,0,0-1.38-1.38h-2.23a1.38,1.38,0,0,0,0,2.76h2.23A1.38,1.38,0,0,0,285.26,242.33Zm23.54-5.28h-8l-.29-1.33a1.39,1.39,0,0,0-1.35-1.1H289a1.39,1.39,0,0,0-1.36,1.1l-.28,1.33h-8.06a3.4,3.4,0,0,0-3.4,3.39V256.8a3.4,3.4,0,0,0,3.4,3.4H308.8a3.4,3.4,0,0,0,3.39-3.4V240.44A3.39,3.39,0,0,0,308.8,237.05Zm.63,19.75a.63.63,0,0,1-.63.63H279.28a.64.64,0,0,1-.64-.63V240.44a.64.64,0,0,1,.64-.63h9.18a1.39,1.39,0,0,0,1.35-1.09l.28-1.33h8l.29,1.33a1.38,1.38,0,0,0,1.35,1.09h9.08a.63.63,0,0,1,.63.63Z" transform="translate(0 -2.18)"/><rect class="cls-60" x="126.99" y="45.53" width="87.91" height="50.02"/><polygon class="cls-61" points="126.99 95.56 170.95 61.55 214.9 95.56 126.99 95.56"/><polygon class="cls-62" points="214.9 45.53 170.95 79.75 126.99 45.53 214.9 45.53"/><path class="cls-53" d="M134.12,326.38a8.86,8.86,0,0,1,0,17.72H62.7V326.38Z" transform="translate(0 -2.18)"/><rect class="cls-63" x="62.7" y="336.68" width="76.15" height="1.37"/><rect class="cls-63" x="62.7" y="333.81" width="77.66" height="1.37"/><rect class="cls-63" x="62.7" y="330.94" width="77.66" height="1.37"/><rect class="cls-63" x="62.7" y="328.07" width="76.16" height="1.37"/><path class="cls-64" d="M61,324.55h73.1a10.69,10.69,0,0,1,0,21.37H61v-3.65h73.1a7,7,0,0,0,0-14.07H61Z" transform="translate(0 -2.18)"/><path class="cls-53" d="M59.18,322.72a8.86,8.86,0,1,1,0-17.72h71.41v17.72Z" transform="translate(0 -2.18)"/><rect class="cls-63" x="54.44" y="306.7" width="76.15" height="1.37"/><rect class="cls-63" x="52.94" y="309.57" width="77.66" height="1.37"/><rect class="cls-63" x="52.94" y="312.44" width="77.66" height="1.37"/><rect class="cls-63" x="54.43" y="315.31" width="76.16" height="1.37"/><path class="cls-19" d="M132.28,324.55H59.18a10.69,10.69,0,1,1,0-21.37h73.1v3.65H59.18a7,7,0,1,0,0,14.07h73.1Z" transform="translate(0 -2.18)"/><path class="cls-53" d="M51.18,301.35a8.86,8.86,0,1,1,0-17.72H122.6v17.72Z" transform="translate(0 -2.18)"/><rect class="cls-63" x="46.45" y="285.32" width="76.15" height="1.37"/><rect class="cls-63" x="44.94" y="288.19" width="77.66" height="1.37"/><rect class="cls-63" x="44.94" y="291.06" width="77.66" height="1.37"/><rect class="cls-63" x="46.44" y="293.93" width="76.16" height="1.37"/><path class="cls-65" d="M124.28,303.18H51.19a10.69,10.69,0,0,1,0-21.38h73.09v3.65H51.19a7,7,0,0,0,0,14.08h73.09Z" transform="translate(0 -2.18)"/><rect class="cls-5" x="375.85" y="14.75" width="49.25" height="21.1" rx="10.55"/><path class="cls-5" d="M63.11,117.74h0a10,10,0,0,1-10-10h0a10,10,0,0,1,10-10h0a10,10,0,0,1,10,10h0A10,10,0,0,1,63.11,117.74Z" transform="translate(0 -2.18)"/><rect class="cls-23" x="442.78" y="322.87" width="96.01" height="16.92"/><rect class="cls-24" x="488.38" y="288.77" width="11.34" height="89.47" transform="translate(827.56 -162.72) rotate(90)"/><rect class="cls-66" x="449.31" y="326.95" width="89.47" height="0.46"/><rect class="cls-66" x="449.31" y="329.02" width="89.47" height="0.46"/><rect class="cls-66" x="449.31" y="331.1" width="89.47" height="0.46"/><rect class="cls-66" x="449.31" y="333.17" width="89.47" height="0.46"/><rect class="cls-66" x="449.31" y="335.25" width="89.47" height="0.46"/><rect class="cls-67" x="432.33" y="305.95" width="96.01" height="16.92"/><rect class="cls-24" x="477.93" y="271.85" width="11.34" height="89.47" transform="translate(800.19 -169.19) rotate(90)"/><rect class="cls-66" x="438.87" y="310.03" width="89.47" height="0.46"/><rect class="cls-66" x="438.87" y="312.11" width="89.47" height="0.46"/><rect class="cls-66" x="438.87" y="314.18" width="89.47" height="0.46"/><rect class="cls-66" x="438.87" y="316.26" width="89.47" height="0.46"/><rect class="cls-66" x="438.87" y="318.33" width="89.47" height="0.46"/></g></g></svg>