<svg xmlns="http://www.w3.org/2000/svg" viewBox="0 0 306.22 153.6"><defs><style>.cls-1{fill:#fff;}.cls-2{fill:#e8505b;}.cls-3{fill:#ebebeb;}.cls-4{fill:#263238;}.cls-5{fill:#ffbe9d;}.cls-6{fill:#eb996e;}.cls-7{opacity:0.6;}.cls-8{opacity:0.2;}</style></defs><title>url-search</title><g id="Search_Engine" data-name="Search Engine"><rect class="cls-1" x="0.26" y="103.15" width="305.65" height="50.19" rx="23.79"/><path class="cls-2" d="M244.6,105.1v50.64h42.7a25.32,25.32,0,0,0,25.33-25.32h0A25.33,25.33,0,0,0,287.3,105.1Z" transform="translate(-6.41 -2.4)"/><path class="cls-1" d="M284.34,129a22.72,22.72,0,0,0-.43-2.59,10.75,10.75,0,0,0-3.9-5.77,10.53,10.53,0,0,0-9.92-1.46,9.56,9.56,0,0,0-2.64,1.43,9.91,9.91,0,0,0-2.21,2.22,10.42,10.42,0,0,0,0,12.33,9.7,9.7,0,0,0,2.21,2.22,9.56,9.56,0,0,0,2.64,1.43,10.46,10.46,0,0,0,9.92-1.46,10.69,10.69,0,0,0,3.9-5.77,23.22,23.22,0,0,0,.43-2.58,8.31,8.31,0,0,1-.24,2.63,10.77,10.77,0,0,1-8.44,8.08,10.87,10.87,0,0,1-5.74-.45,10.17,10.17,0,0,1-2.77-1.48,10.37,10.37,0,0,1-2.32-2.31,10.89,10.89,0,0,1,0-12.94,10.42,10.42,0,0,1,2.32-2.32,10.17,10.17,0,0,1,2.77-1.48,11,11,0,0,1,5.74-.45,10.77,10.77,0,0,1,8.44,8.08A8.37,8.37,0,0,1,284.34,129Z" transform="translate(-6.41 -2.4)"/><path class="cls-1" d="M294.27,144a52,52,0,0,1-6.16-4.09,55.05,55.05,0,0,1-5.86-4.51,52,52,0,0,1,6.16,4.09A53.55,53.55,0,0,1,294.27,144Z" transform="translate(-6.41 -2.4)"/><rect class="cls-3" x="29.33" y="123.55" width="186.85" height="10.74"/><path class="cls-4" d="M288.53,155.74l1.73-.11a15.55,15.55,0,0,0,2.11-.26,23.46,23.46,0,0,0,2.87-.65,24.31,24.31,0,0,0,7.32-3.68l1-.75c.32-.27.63-.57.95-.86a19.55,19.55,0,0,0,1.9-2c.65-.68,1.16-1.51,1.78-2.29.25-.43.52-.86.78-1.3l.4-.66.34-.71a23,23,0,0,0,2.1-6.33c.08-.58.17-1.16.26-1.76s.07-1.2.1-1.81c.05-1.23,0-2.5,0-3.79a23.64,23.64,0,0,0-22.91-23.07c-6.82-.07-14.06,0-21.64,0l-237.15.08a23.63,23.63,0,0,0-15.6,5.93,23.29,23.29,0,0,0-7.73,14.56A18.22,18.22,0,0,0,7,128.39c0,.69,0,1.4,0,2.1a41.18,41.18,0,0,0,.16,4.17,22.78,22.78,0,0,0,2.37,7.88,23.36,23.36,0,0,0,19.43,12.87c1.33.1,2.68.08,4,.08H83.68l106.62.06,71.87.08,19.55.05,5.08,0,1.73,0-1.73,0-5.08,0-19.55,0-71.87.08L83.68,156H32.92c-1.35,0-2.69,0-4.06-.08A23.88,23.88,0,0,1,9,142.77a23.26,23.26,0,0,1-2.42-8.05,40,40,0,0,1-.17-4.23c0-.7,0-1.41,0-2.12a16.68,16.68,0,0,1,.17-2.12,23.83,23.83,0,0,1,7.89-14.89,24.24,24.24,0,0,1,16-6.07l237.15.08c7.59,0,14.81,0,21.65.06a23.92,23.92,0,0,1,23.15,23.4c0,1.3,0,2.55,0,3.79,0,.62-.06,1.23-.1,1.84s-.18,1.19-.27,1.77a23,23,0,0,1-2.14,6.38c-.11.24-.23.47-.34.71l-.41.67c-.27.44-.53.88-.8,1.31-.62.78-1.14,1.62-1.8,2.3a19.62,19.62,0,0,1-1.91,2l-1,.87-1,.74a24.08,24.08,0,0,1-7.38,3.66,23.29,23.29,0,0,1-2.89.63,14.86,14.86,0,0,1-2.12.23C289.12,155.73,288.53,155.74,288.53,155.74Z" transform="translate(-6.41 -2.4)"/></g><g id="Character"><path class="cls-5" d="M156.1,124.54c-.91-1.06-1-2,1.05-2.14,4.51-.41,7.83-2.38,8.36-3.52s-.91-2.25-2.13-1.56a17,17,0,0,1-4.4,1.24,11,11,0,0,1-3.66,0c-1-.17-2-.34-2.8-.52,0,0-4.77-1-6.83-2.64l-10.1,10.8,4.74,5.35a7.19,7.19,0,0,0,6.32,3c4.06-.4,9.53-3.32,9.53-3.32.74-1.13,7.28,2.9,9.39,4.41s3.66,1.14,3.58-.32c-.05-1-6.39-5.77-8.51-7.22a26.54,26.54,0,0,1-4.54-3.59" transform="translate(-6.41 -2.4)"/><path class="cls-6" d="M150.17,133.92c0,.06-.29.19-.82.18a3.51,3.51,0,0,1-1.88-.7,3.42,3.42,0,0,1-1.18-1.62c-.16-.5-.11-.83,0-.83s.39,1.19,1.55,2A6.79,6.79,0,0,0,150.17,133.92Z" transform="translate(-6.41 -2.4)"/><path class="cls-6" d="M154.17,132.34c0,.07-.29.17-.79.14a3.28,3.28,0,0,1-1.78-.71,3.33,3.33,0,0,1-1.13-1.55c-.15-.48-.12-.79-.06-.8s.42,1.12,1.51,1.94A7.58,7.58,0,0,0,154.17,132.34Z" transform="translate(-6.41 -2.4)"/><path class="cls-4" d="M165.06,20.08c.42,8.87,11.23,21,19.26,23,4.23,1,9.09.54,12.44,3.38,5.74,4.87,2.39,15,6.26,21.5,2.38,4,7.11,6,9.79,9.8,4.45,6.34,1.46,15.91-4.61,20.63S194,104,186.42,103.79c-16.75-.43-33.9-5.76-46-17.63-5.69-5.57-27.94-22.79-20.18-63.59" transform="translate(-6.41 -2.4)"/><path class="cls-2" d="M225.5,83.49l-63.67-18.9a39.9,39.9,0,0,0-9.27-2.79l-21.5.14a21,21,0,0,0-8.25,1.72L64.86,82.91c-4.29,1.36-7.25,5.76-7.25,10.77h0c0,6.18,4.45,11.18,9.94,11.18H94.31l-.11.4,93.08.35v0l35.53.08c5.49,0,9.94-5.06,9.94-11.29C232.75,89.3,229.79,84.86,225.5,83.49Z" transform="translate(-6.41 -2.4)"/><path class="cls-4" d="M212.74,90.37a2.12,2.12,0,0,1-.58,0l-1.64-.18c-1.42-.18-3.48-.41-6-.66a181.56,181.56,0,0,0-39.91.52c-2.54.32-4.6.6-6,.82l-1.64.23a2.45,2.45,0,0,1-.57,0,1.94,1.94,0,0,1,.55-.15l1.62-.32c1.41-.28,3.46-.62,6-1a162.33,162.33,0,0,1,20-1.52,160.57,160.57,0,0,1,20,1c2.55.29,4.61.57,6,.82l1.63.28A2.42,2.42,0,0,1,212.74,90.37Z" transform="translate(-6.41 -2.4)"/><g class="cls-7"><path class="cls-1" d="M197.8,74.9s-.06.08-.18.22l-.56.59c-.5.51-1.24,1.26-2.25,2.18A36.8,36.8,0,0,1,190.94,81,19.25,19.25,0,0,1,185,83.84a15.07,15.07,0,0,1-8-.16,39.25,39.25,0,0,1-8.38-3.7,50.73,50.73,0,0,0-9.07-4.25,14,14,0,0,0-10.37.53c-3.35,1.51-6.2,3.82-9.31,5.48-.78.43-1.59.76-2.38,1.11a25.15,25.15,0,0,1-2.45.82,24.09,24.09,0,0,1-4.9.85A25.33,25.33,0,0,1,113.89,80,45.55,45.55,0,0,1,109,75.67a24,24,0,0,0-3.81-3.12,10.74,10.74,0,0,0-3.9-1.46,5.55,5.55,0,0,1,1.09.13,9.26,9.26,0,0,1,2.92,1.16,23.17,23.17,0,0,1,3.9,3.07,45.14,45.14,0,0,0,4.93,4.28A25.09,25.09,0,0,0,130.15,84a23.28,23.28,0,0,0,4.8-.85c.81-.2,1.59-.52,2.39-.8s1.57-.68,2.32-1.1c3.06-1.64,5.91-4,9.35-5.5a14.49,14.49,0,0,1,10.73-.55,50.84,50.84,0,0,1,9.15,4.32,39.82,39.82,0,0,0,8.26,3.71,14.87,14.87,0,0,0,7.75.21,19.28,19.28,0,0,0,5.88-2.71,38.67,38.67,0,0,0,3.89-3c1-.89,1.79-1.62,2.32-2.11l.59-.55Z" transform="translate(-6.41 -2.4)"/></g><g class="cls-8"><polygon points="92.45 87.84 132.7 95.43 128.05 103 126.83 103.02 92.45 87.84"/></g><g class="cls-7"><path class="cls-1" d="M220.69,82.29a2.93,2.93,0,0,1,0,.62,14,14,0,0,1-.18,1.76,15.24,15.24,0,0,1-10,11.85,15.48,15.48,0,0,1-5.67.89,25.75,25.75,0,0,1-6-1.11c-2-.56-4-1.19-5.86-1.58a17.27,17.27,0,0,0-5.56-.29A17.83,17.83,0,0,0,178.7,98a17.36,17.36,0,0,0-4.31,4.71l-.52.87c-.13.25-.24.46-.33.66a3.14,3.14,0,0,1-.31.54,3.52,3.52,0,0,1,.21-.58c.09-.21.18-.44.29-.69l.49-.9a16.48,16.48,0,0,1,4.26-4.9A17.81,17.81,0,0,1,187.32,94a17.35,17.35,0,0,1,5.72.26c2,.39,3.9,1,5.91,1.58a25.57,25.57,0,0,0,5.91,1.1,15.2,15.2,0,0,0,5.49-.83,15,15,0,0,0,7.45-5.59,15.73,15.73,0,0,0,2.53-5.85C220.64,83.14,220.63,82.29,220.69,82.29Z" transform="translate(-6.41 -2.4)"/></g><path class="cls-2" d="M64.91,103.57S137.67,135.68,137.3,135s11.55-21.79,11.55-21.79L89.9,84Z" transform="translate(-6.41 -2.4)"/><path class="cls-4" d="M98.31,88.19a8.57,8.57,0,0,1,1.5.62l4,1.89c3.38,1.61,8,3.88,13.13,6.4s9.73,4.84,13.06,6.54l3.93,2a9.78,9.78,0,0,1,1.41.81,9.77,9.77,0,0,1-1.5-.63l-4-1.88c-3.37-1.62-8-3.88-13.13-6.41S107,92.73,103.65,91l-3.93-2A10.59,10.59,0,0,1,98.31,88.19Z" transform="translate(-6.41 -2.4)"/><g class="cls-7"><path class="cls-1" d="M114.29,97.93a6.25,6.25,0,0,1-.68,2.15,10.13,10.13,0,0,1-4.34,4.34,13.2,13.2,0,0,1-4,1.44,16.15,16.15,0,0,1-4.92.06,37.49,37.49,0,0,1-10.61-3.56,54.67,54.67,0,0,0-10.32-4.07,18.29,18.29,0,0,0-4.76-.55,14.49,14.49,0,0,0-4.12.69,11.27,11.27,0,0,0-5.08,3.18,19.94,19.94,0,0,0-1.31,1.81,6.6,6.6,0,0,1,1.16-1.94,11.09,11.09,0,0,1,5.12-3.4,14.94,14.94,0,0,1,4.21-.78,19.13,19.13,0,0,1,4.89.52,53.74,53.74,0,0,1,10.43,4.07,37.64,37.64,0,0,0,10.46,3.55,15.61,15.61,0,0,0,4.78,0,13.06,13.06,0,0,0,3.94-1.33,10.21,10.21,0,0,0,4.33-4.11A17,17,0,0,0,114.29,97.93Z" transform="translate(-6.41 -2.4)"/></g><g class="cls-7"><path class="cls-1" d="M145.18,119.93c0,.1-1.61-.17-4.21-.21a34.55,34.55,0,0,0-4.55.23A37.92,37.92,0,0,0,131,121a38.5,38.5,0,0,0-5.22,2,34,34,0,0,0-4,2.19c-2.19,1.4-3.41,2.46-3.47,2.39s.26-.31.81-.8a23.9,23.9,0,0,1,2.46-1.9,31.59,31.59,0,0,1,4-2.32,36.06,36.06,0,0,1,5.29-2,35.19,35.19,0,0,1,5.55-1.06,31,31,0,0,1,4.62-.12,23.89,23.89,0,0,1,3.09.33A5.28,5.28,0,0,1,145.18,119.93Z" transform="translate(-6.41 -2.4)"/></g><g class="cls-8"><path d="M154.15,61.66c-1.2,3.37.6,7,2.36,10.11a27.55,27.55,0,0,0,4.22,6.12,9.18,9.18,0,0,0,6.61,3c3.27-.1,6.19-2.52,9.46-2.33,2.21.13,4.16,1.44,6,2.69a47.53,47.53,0,0,0,10.08,5.58,18.1,18.1,0,0,0,11.34.72,11.35,11.35,0,0,0,7.85-7.77" transform="translate(-6.41 -2.4)"/></g><path class="cls-5" d="M154.42,60.73c.17-3.91.38-7.46.38-7.46s8.76-1.1,9.13-10-.51-29.51-.51-29.51L147.31,6,130,20l2.72,41a10.9,10.9,0,0,0,11.36,10.15h0A10.89,10.89,0,0,0,154.42,60.73Z" transform="translate(-6.41 -2.4)"/><path class="cls-4" d="M161.91,29.88a1.11,1.11,0,1,1-1.13-1.13A1.13,1.13,0,0,1,161.91,29.88Z" transform="translate(-6.41 -2.4)"/><path class="cls-4" d="M163,27.49c-.14.15-1-.55-2.17-.6s-2.09.57-2.22.4.08-.34.47-.63a2.9,2.9,0,0,1,1.78-.51,2.84,2.84,0,0,1,1.73.67C162.94,27.14,163.06,27.42,163,27.49Z" transform="translate(-6.41 -2.4)"/><path class="cls-4" d="M148.63,29.88a1.12,1.12,0,1,1-1.14-1.13A1.13,1.13,0,0,1,148.63,29.88Z" transform="translate(-6.41 -2.4)"/><path class="cls-4" d="M149.71,27.72c-.14.15-1-.55-2.18-.6s-2.09.57-2.21.4.08-.34.47-.63a2.89,2.89,0,0,1,1.77-.51,2.81,2.81,0,0,1,1.73.67C149.66,27.37,149.78,27.65,149.71,27.72Z" transform="translate(-6.41 -2.4)"/><path class="cls-4" d="M154.21,38a6.82,6.82,0,0,1,2-.3c.3,0,.59-.08.65-.3a1.79,1.79,0,0,0-.19-1c-.27-.81-.56-1.65-.87-2.53a47,47,0,0,1-1.93-6.62,44.94,44.94,0,0,1,2.42,6.44c.29.89.57,1.74.83,2.55a2.08,2.08,0,0,1,.14,1.3.77.77,0,0,1-.51.46,2,2,0,0,1-.52,0A7.84,7.84,0,0,1,154.21,38Z" transform="translate(-6.41 -2.4)"/><path class="cls-1" d="M150.27,39.27c-1.22-.81,3.39,2,5.83,1.94a3.27,3.27,0,0,1-3.95,1.23C149.57,41.38,150.27,39.27,150.27,39.27Z" transform="translate(-6.41 -2.4)"/><path class="cls-6" d="M154.8,53.27a21.32,21.32,0,0,1-11.59-3.79s2.73,6.5,11.44,6Z" transform="translate(-6.41 -2.4)"/><path class="cls-4" d="M120.57,28.75h0c0,7.74-2,28.19,12,31l-.51-28.16s13.65-6.44,16-19.84l.08.07c.87,2,2.43,6.37,1.48,9.91l12.79,3.15,1.47,1.35s4.55-10-4.23-19-16.29-2.49-21-3.06c-3.13-.38-14-.3-18.41,18.4Z" transform="translate(-6.41 -2.4)"/><path class="cls-5" d="M132.45,31.92a3.14,3.14,0,0,0-3.76.91,5.13,5.13,0,0,0,5.11,8.43" transform="translate(-6.41 -2.4)"/><path class="cls-6" d="M132.18,38.58c0,.06-.4.13-1,0a2.69,2.69,0,0,1-1.87-1.65,2,2,0,0,1,.06-1.46,2,2,0,0,1,.76-.89c.56-.36,1-.34,1-.28s-.35.19-.77.57a1.75,1.75,0,0,0-.54,1.89,2.64,2.64,0,0,0,1.5,1.48C131.81,38.43,132.18,38.5,132.18,38.58Z" transform="translate(-6.41 -2.4)"/><path class="cls-2" d="M131,40.34a1,1,0,1,0,.39,0" transform="translate(-6.41 -2.4)"/><path class="cls-5" d="M156.91,105.65V91s-21.81,4.53-22.21,14.52Z" transform="translate(-6.41 -2.4)"/><path class="cls-4" d="M154.64,59.19A18.28,18.28,0,0,0,172.54,76c3.22.06,6.61-.71,9.55.61,2.56,1.14,4.21,3.62,6.22,5.57a18.45,18.45,0,0,0,18.28,4.13c2.64-.89,6.84-2.78,7.33-5.53.38-2.08-2.18-4.16-3.68-5.66a18.74,18.74,0,0,0-5.37-3.35c-15.54-7.3-32.22-12.61-49.36-13.52" transform="translate(-6.41 -2.4)"/></g></svg>